<svg width="57" height="57" viewBox="0 0 57 57" fill="none" xmlns="http://www.w3.org/2000/svg">
<path d="M45.125 33.25C48.6638 29.7825 52.25 25.6262 52.25 20.1875C52.25 16.7231 50.8738 13.4006 48.4241 10.9509C45.9744 8.50122 42.6519 7.125 39.1875 7.125C35.0075 7.125 32.0625 8.3125 28.5 11.875C24.9375 8.3125 21.9925 7.125 17.8125 7.125C14.3481 7.125 11.0256 8.50122 8.57592 10.9509C6.12622 13.4006 4.75 16.7231 4.75 20.1875C4.75 25.65 8.3125 29.8062 11.875 33.25L28.5 49.875L45.125 33.25Z" stroke="white" stroke-width="4" stroke-linecap="round" stroke-linejoin="round"/>
<path d="M28.5 11.875L21.47 18.905C20.9874 19.384 20.6045 19.9539 20.3431 20.5816C20.0818 21.2093 19.9472 21.8825 19.9472 22.5625C19.9472 23.2425 20.0818 23.9157 20.3431 24.5434C20.6045 25.1711 20.9874 25.741 21.47 26.22C23.4175 28.1675 26.5288 28.2387 28.595 26.3862L33.5112 21.8738C34.7435 20.7556 36.3479 20.1362 38.0119 20.1362C39.6758 20.1362 41.2802 20.7556 42.5125 21.8738L49.5425 28.1912" stroke="white" stroke-width="4" stroke-linecap="round" stroke-linejoin="round"/>
<path d="M42.75 35.625L38 30.875" stroke="white" stroke-width="2" stroke-linecap="round" stroke-linejoin="round"/>
<path d="M35.625 42.75L30.875 38" stroke="white" stroke-width="2" stroke-linecap="round" stroke-linejoin="round"/>
</svg>
