<svg width="57" height="58" viewBox="0 0 57 58" fill="none" xmlns="http://www.w3.org/2000/svg">
<path d="M47.5 31.4167C47.5 43.5 39.1875 49.5417 29.3075 53.0459C28.7901 53.2243 28.2281 53.2157 27.7162 53.0217C17.8125 49.5417 9.5 43.5 9.5 31.4167V14.5C9.5 13.8591 9.75022 13.2444 10.1956 12.7912C10.641 12.338 11.2451 12.0834 11.875 12.0834C16.625 12.0834 22.5625 9.18336 26.695 5.51003C27.1982 5.07261 27.8382 4.83228 28.5 4.83228C29.1618 4.83228 29.8018 5.07261 30.305 5.51003C34.4612 9.20753 40.375 12.0834 45.125 12.0834C45.7549 12.0834 46.359 12.338 46.8044 12.7912C47.2498 13.2444 47.5 13.8591 47.5 14.5V31.4167Z" stroke="white" stroke-width="4" stroke-linecap="round" stroke-linejoin="round"/>
<path d="M21.375 29.0001L26.125 33.8334L35.625 24.1667" stroke="white" stroke-width="4" stroke-linecap="round" stroke-linejoin="round"/>
</svg>
